<svg width="40" height="40" viewBox="0 0 40 40" fill="none" xmlns="http://www.w3.org/2000/svg">
<path d="M38.3334 31.6667C38.3334 32.5507 37.9822 33.3986 37.3571 34.0237C36.732 34.6488 35.8841 35 35.0001 35H5.00008C4.11603 35 3.26818 34.6488 2.64306 34.0237C2.01794 33.3986 1.66675 32.5507 1.66675 31.6667V13.3333C1.66675 12.4493 2.01794 11.6014 2.64306 10.9763C3.26818 10.3512 4.11603 10 5.00008 10H11.6667L15.0001 5H25.0001L28.3334 10H35.0001C35.8841 10 36.732 10.3512 37.3571 10.9763C37.9822 11.6014 38.3334 12.4493 38.3334 13.3333V31.6667Z" stroke="#FFAC50" stroke-width="2" stroke-linecap="round" stroke-linejoin="round"/>
<path d="M19.9999 28.3333C23.6818 28.3333 26.6666 25.3486 26.6666 21.6667C26.6666 17.9848 23.6818 15 19.9999 15C16.318 15 13.3333 17.9848 13.3333 21.6667C13.3333 25.3486 16.318 28.3333 19.9999 28.3333Z" stroke="#FFAC50" stroke-width="2" stroke-linecap="round" stroke-linejoin="round"/>
</svg>
