<svg width="177" height="193" viewBox="0 0 177 193" fill="none" xmlns="http://www.w3.org/2000/svg">
<path d="M161.503 223.105C156.028 212.41 163.137 174.43 158.246 150.341C138.6 156.774 117.295 159.335 96.9862 155.468C92.7221 154.657 88.4573 153.845 84.1931 153.033C84.3284 169.698 86.4487 185.116 91.5044 200.996C93.9554 208.697 97.0117 216.608 95.8954 224.613C102.124 228.146 108.638 226.783 115.713 225.675C114.725 210.735 113.806 195.28 118.961 181.223C120.243 180.638 120.54 180.061 121.89 179.657C122.362 179.515 122.882 179.387 123.333 179.583C123.756 179.765 124.017 180.187 124.248 180.584C131.688 193.358 137.343 207.168 140.999 221.491C141.342 222.832 141.055 223.03 141.293 224.393C146.019 224.243 150.748 224.209 155.475 224.291C157.52 224.327 159.262 224.136 161.307 224.123C161.538 224.121 161.793 224.11 161.958 223.949C162.123 223.787 161.733 223.118 161.503 223.105Z" fill="#A0A0A0"/>
<path opacity="0.15" d="M158.297 127.547C152.432 135.341 145.959 142.678 138.955 149.468C142.727 154.683 144.369 161.394 143.43 167.762C142.837 171.785 141.27 175.613 140.636 179.63C138.969 190.165 143.806 200.551 148.875 209.934C150.668 213.254 152.569 216.862 152.011 220.594C151.839 221.736 151.438 222.841 151.353 223.994C151.223 225.752 151.83 227.553 151.392 229.26C150.6 232.347 146.974 233.591 143.877 234.34C147.582 234.98 151.422 234.831 155.066 233.904C155.472 233.8 155.907 233.667 156.159 233.33C156.674 232.64 156.096 231.69 155.563 231.013C154.051 229.092 152.714 226.796 152.918 224.36C156.069 224.293 158.808 224.015 161.959 223.949C158.536 217.227 159.492 208.601 159.606 201.3C159.744 192.486 159.882 183.672 160.02 174.858C160.114 168.873 160.205 162.859 159.376 156.931C159.162 155.4 158.886 153.875 158.807 152.332C158.711 150.489 158.895 148.644 158.945 146.799C159.038 143.392 158.245 139.958 158.414 136.588C158.48 135.28 158.622 134.048 158.564 132.703C158.524 131.784 157.791 128.219 158.297 127.547Z" fill="#004C5B"/>
<path opacity="0.15" d="M98.6242 205.245C100.393 209.618 102.73 213.853 103.388 218.523C103.744 221.045 103.594 223.608 103.444 226.151C103.367 227.435 103.279 228.764 102.675 229.899C101.745 231.646 98.849 233.235 97.0405 234.043C98.8771 234.131 101.086 233.693 102.919 233.595C104.279 233.524 107.988 233.041 107.988 233.041C107.988 233.041 106.081 228.695 104.779 226.737C105.209 227.384 110.658 226.461 111.481 226.345C113.032 226.126 115.713 225.675 115.713 225.675C115.687 225.113 115.662 224.551 115.636 223.989C115.436 219.698 115.221 215.407 115.083 211.114C115.017 209.053 114.789 206.884 114.953 204.827C114.997 204.265 115.536 198.435 115.388 198.417C109.132 197.708 102.901 195.578 98.1183 191.483C97.3529 190.827 96.6287 190.126 95.9045 189.425C95.4692 189.003 94.1724 187.369 94.4463 188.794C94.5921 189.551 94.8176 190.278 94.9228 191.051C95.1235 192.528 95.1293 194.06 95.4698 195.515C96.2509 198.863 97.3346 202.058 98.6242 205.245Z" fill="#004C5B"/>
<path d="M62.6875 153.327C61.4594 154.896 60.2313 156.466 59.0031 158.036C58.3894 158.819 57.5763 159.746 57.3684 160.751C57.2148 161.493 57.4626 162.193 57.4227 162.946C57.324 164.815 56.5161 166.915 55.3298 168.353C55.0017 168.75 54.6063 169.182 54.6501 169.696C54.6984 170.262 55.2985 170.65 55.8658 170.667C56.4331 170.684 56.9691 170.43 57.4795 170.18C58.3194 169.77 59.2253 169.292 59.5881 168.43C59.7835 167.965 59.7927 167.445 59.9227 166.958C60.2809 165.618 61.5051 164.686 62.7647 164.104C64.0242 163.521 65.3967 163.175 66.5785 162.448C68.268 161.408 69.4557 159.59 69.7302 157.625" fill="#FFCFA3"/>
<path opacity="0.15" d="M57.7367 159.426C57.9053 159.138 58.0988 158.857 58.2609 158.542C58.3125 158.441 58.357 158.311 58.2877 158.222C58.2034 158.116 58.0354 158.16 57.9092 158.212C57.0386 158.568 56.1072 158.773 55.168 158.819C54.3784 158.857 53.7568 158.695 53.598 159.667C53.5294 160.089 53.2104 164.528 53.5091 164.582C53.8732 164.627 54.0765 165.009 54.2621 165.328C54.715 166.105 55.9366 167.699 56.4902 166.288C56.9288 165.168 56.9968 163.934 57.1001 162.749C57.1661 161.99 57.2412 161.2 57.3445 160.455C57.3981 160.066 57.553 159.741 57.7367 159.426Z" fill="black"/>
<path opacity="0.15" d="M67.0166 155.422C67.7545 155 68.4944 154.572 69.18 154.022C70.7369 152.772 72.2383 151.454 73.6795 150.072C76.5613 147.308 79.1999 144.291 81.5516 141.064C81.2653 141.457 81.5294 143.116 81.5235 143.626C81.515 144.392 81.5209 145.145 81.5653 145.909C81.5725 146.021 81.5784 146.14 81.53 146.242C81.4986 146.308 81.447 146.363 81.396 146.416C80.013 147.863 78.6979 149.416 77.2737 150.805C76.5711 151.49 75.8207 152.124 75.0586 152.742C74.6625 153.063 74.2612 153.38 73.8605 153.695C73.6625 153.852 73.0226 154.547 72.786 154.547C71.9455 155.222 70.6395 155.894 70.0245 156.767C69.4447 157.591 69.5095 158.778 69.1493 159.694C68.816 160.541 68.1375 161.219 67.363 161.696C65.3512 162.937 62.8838 163.027 61.2766 164.968C59.6393 166.945 58.9464 169.574 56.2784 170.465C55.9673 170.568 55.6359 170.644 55.3137 170.585C54.9915 170.526 54.6816 170.303 54.6045 169.985C54.5797 169.884 54.5836 169.766 54.6529 169.689C54.7026 169.633 54.7758 169.608 54.8457 169.583C57.8432 168.528 58.6275 165.663 59.9628 163.14C60.7805 161.595 62.0831 160.368 63.1002 158.945C63.6459 158.182 64.1257 157.343 64.8701 156.772C65.5466 156.254 66.2806 155.841 67.0166 155.422Z" fill="black"/>
<path d="M79.4566 89.3709C79.0258 90.0474 78.5846 90.786 78.6291 91.5866C78.6631 92.1939 78.9742 92.7461 79.2775 93.2736C81.8913 97.8201 84.505 102.366 87.1188 106.912C86.3502 105.576 89.2947 98.4646 89.7261 96.8286C90.6601 93.29 91.6118 89.7572 92.5817 86.229C93.5268 82.791 94.4902 79.3576 95.47 75.9301C96.3962 72.6895 98.1583 68.8292 98.338 65.5664C91.081 72.5215 84.841 80.9112 79.4566 89.3709Z" fill="#A0A0A0"/>
<path d="M108.292 160.664C101.275 160.509 90.3606 159.974 84.6376 155.235C79.5244 151.001 81.9924 137.74 82.6631 132.006C83.5284 124.599 84.5481 117.21 85.5893 109.825C85.9043 107.59 86.2246 105.356 86.5651 103.125C87.7847 95.1535 89.2527 87.1821 91.7149 79.4891C93.779 73.0393 96.7941 63.7181 102.084 59.218C111.596 51.1276 129.549 53.4519 137.807 62.0272C141.156 65.5044 143.618 69.7379 145.718 74.0844C156.604 96.6085 158.29 122.352 159.006 147.357C159.052 148.966 158.843 149.208 158.86 150.818C158.865 151.244 158.861 151.699 158.625 152.055C158.352 152.465 157.844 152.635 157.372 152.776C141.436 157.56 124.927 161.033 108.292 160.664Z" fill="#004C5B"/>
<path d="M100.596 60.3522C92.155 72.0518 89.4686 86.8129 87.0045 101.028C83.207 122.939 77.8592 145.267 83.211 166.851C86.2646 179.166 94.3485 191.287 106.078 196.123C115.686 200.084 127.875 198.966 135.02 191.421C137.319 188.994 139 186.051 140.459 183.044C146.248 171.108 148.824 157.631 147.844 144.401C151.697 143.625 155.246 141.932 158.779 140.21C158.642 137.729 158.504 135.247 158.366 132.766C153.858 134.12 149.265 135.189 144.623 135.966C143.658 136.127 142.553 136.24 141.808 135.605C141.313 135.183 141.103 134.524 140.898 133.905C137.208 122.716 128.349 113.184 127.521 101.43C126.746 90.4124 125.778 79.2356 129.299 68.7667C130.55 65.0477 132.615 61.0339 136.396 59.9848C134.589 58.5841 132.455 57.2436 130.367 56.3096C121.928 66.1092 119.039 79.3768 116.435 92.0444C109.433 93.1033 101.881 92.4791 95.0844 90.4908C95.5381 80.7357 97.5303 71.2779 101.239 62.2437C101.004 61.3777 100.832 61.2188 100.596 60.3522Z" fill="white"/>
<path d="M139.643 107.379C139.306 112.242 140.559 117.15 139.883 121.978C139.221 126.717 136.764 130.983 134.431 135.161C131.732 139.994 129.133 144.892 126.914 149.966C124.728 154.967 123.592 159.126 119.282 162.765C117.732 164.074 115.87 165.092 113.854 165.321C113.393 165.373 112.908 165.389 112.503 165.616C112.098 165.844 111.812 166.372 112.03 166.782C112.153 167.01 112.395 167.144 112.629 167.253C115.43 168.56 119.02 167.92 121.196 165.725C121.632 165.286 121.564 165.622 121.82 166.186C122.076 166.75 121.999 167.399 121.971 168.018C121.848 170.633 122.989 175.265 125.448 176.771C126.147 177.198 127.273 177.003 127.493 176.214C127.584 175.888 127.505 175.542 127.425 175.212C126.97 173.335 125.984 171.534 125.895 169.571C125.733 165.987 130.346 168.352 132.156 169.178C132.667 169.412 133.196 169.65 133.757 169.664C135.07 169.698 136.099 168.52 136.636 167.322C137.174 166.124 137.445 164.78 138.257 163.748C140.178 161.308 141.336 158.63 139.868 155.536C139.651 155.079 137.635 150.978 136.836 152.101C142.551 144.061 150.918 138.117 156.19 129.782C157.362 127.928 158.383 125.937 158.8 123.784C159.251 121.452 158.976 119.048 158.7 116.689C158.341 113.634 157.983 110.578 157.625 107.522C157.564 107.003 157.491 106.452 157.159 106.048C156.72 105.513 155.966 105.387 155.277 105.313C149.902 104.736 144.882 106.032 139.643 107.379Z" fill="#FFCFA3"/>
<path d="M135.998 59.6615C140.525 59.8053 145.36 66.661 147.421 69.6787C150.937 74.8272 153.37 80.6385 155.473 86.4798C158.16 93.9434 160.417 101.562 162.229 109.286C152.775 110.083 143.125 110.591 133.671 111.388C133.479 111.405 133.269 111.416 133.113 111.304C132.947 111.184 132.896 110.963 132.856 110.762C131.956 106.18 131.056 101.598 130.156 97.016C128.892 90.5766 127.624 84.1039 127.401 77.5443C127.218 72.1494 127.78 66.427 131.405 62.2458C132.245 61.2778 133.201 60.3471 134.407 59.9111C134.93 59.7216 135.461 59.6445 135.998 59.6615Z" fill="#A0A0A0"/>
<path opacity="0.15" d="M121.249 161.231C120.99 161.969 120.833 162.918 120.937 163.357C121.178 164.381 121.598 165.301 120.774 166.135C120.131 166.786 119.045 167.21 118.2 167.505C116.411 168.13 114.102 168.393 112.495 167.17C112.129 166.892 111.912 166.369 112.116 165.958C112.358 165.466 113.008 165.383 113.553 165.32C117.01 164.925 119.397 162.795 121.697 160.367C121.537 160.539 121.38 160.858 121.249 161.231Z" fill="black"/>
<path opacity="0.23" d="M130.03 56.399C132.14 56.2683 133.743 58.1533 135.567 59.22C136.494 59.7625 137.523 60.1037 138.493 60.5645C142.65 62.541 145.421 66.5287 147.995 70.3445C154.533 80.031 157.699 91.2692 160.699 102.564C161.312 104.873 161.784 106.926 161.96 109.309C161.037 109.393 160.115 109.477 159.193 109.56C158.692 109.605 157.914 109.666 157.914 109.666C157.914 109.666 158.264 112.658 158.322 113.44C158.489 115.666 158.855 117.375 158.991 119.603C159.119 121.707 159.116 121.723 158.803 123.784C158.135 128.164 152.505 134.934 152.505 134.934C151.233 136.213 149.916 137.445 148.664 138.743C144.51 143.049 140.522 146.912 137.061 151.793C139.1 153.839 140.786 156.513 140.351 159.368C140.015 161.583 138.166 163.238 137.283 165.296C136.641 166.79 136.33 168.71 134.836 169.349C133.375 169.974 131.796 168.936 130.403 168.172C129.011 167.407 126.892 167.083 126.15 168.489C125.05 170.573 126.927 173.272 127.338 175.298C127.407 175.638 127.45 175.995 127.344 176.325C127.238 176.656 126.947 176.948 126.601 176.955C126.257 176.962 125.967 176.7 125.763 176.424C125.349 175.864 125.127 175.188 124.937 174.519C124.443 172.774 124.248 171.084 124.117 169.304C123.991 167.6 123.91 165.824 124.73 164.262C125.336 163.109 126.353 162.239 127.169 161.225C129.679 158.111 130.154 153.886 131.534 150.132C134.362 142.437 140.998 136.762 144.711 129.452C147.684 123.6 148.665 116.757 147.454 110.305C146.144 103.325 149.795 96.5628 149.04 89.5011C148.44 83.886 146.872 78.2381 143.516 73.6955C140.16 69.1529 134.813 65.8581 129.166 65.9411C131.898 63.6332 132.314 59.154 130.03 56.399Z" fill="#8E3900"/>
<path opacity="0.15" d="M123.837 113.33C122.251 115.984 118.791 116.711 115.721 117.071C111.186 117.602 106.56 117.888 102.077 117.022C98.8687 116.403 95.1457 115.13 92.7234 112.829C88.5697 108.881 97.2399 111.877 99.0465 112.259C107.175 113.978 115.591 114.35 123.837 113.33Z" fill="black"/>
<path opacity="0.15" d="M91.149 79.8809C89.9359 83.9202 89.0333 88.0458 88.2947 92.1962C87.9306 94.2453 87.6078 96.3009 87.3051 98.3597C87.0444 100.143 87.1195 102.643 86.3698 104.241C83.656 103.87 85.1436 93.8119 85.5306 91.9478C85.9855 89.7556 86.6888 87.6131 87.6306 85.581C88.4869 83.7313 90.5948 81.7267 91.149 79.8809Z" fill="black"/>
<path opacity="0.15" d="M137.957 161.819C138.316 161.407 138.739 161.053 139.077 160.625C139.687 159.853 139.993 158.847 139.919 157.866C140.682 159.335 139.928 161.134 138.957 162.475C138.254 163.445 137.535 164.423 136.847 165.389C136.424 164.25 137.195 162.695 137.957 161.819Z" fill="black"/>
<path opacity="0.23" d="M114.982 74.8473C114.038 79.0461 111.921 82.9743 108.936 86.0731C108.172 86.8666 107.287 87.766 107.374 88.8647C107.452 89.8582 108.317 90.6007 109.188 91.0856C110.485 91.8079 111.928 92.2197 113.356 92.6262C115.293 93.1772 117.231 93.7282 119.168 94.2792C120.99 94.7975 122.836 95.3263 124.457 96.3073C126.952 97.8178 128.707 100.268 130.39 102.65C130.767 100.109 129.998 97.559 129.384 95.0655C127.06 85.6424 126.87 75.6983 128.834 66.1935C126.944 65.6327 124.821 65.9144 123.143 66.9485C122.078 67.604 121.202 68.5354 120.129 69.176C118.9 69.9093 117.181 69.2988 116.357 69.9073C115.361 70.6433 115.236 73.7212 114.982 74.8473Z" fill="#8E3900"/>
<path d="M96.1592 49.8412C96.8252 52.4386 98.3932 52.0373 100.029 53.2439C101.276 54.1635 101.85 55.9681 102.895 57.1936C105.158 59.848 108.398 61.699 111.871 62.1376C117.137 62.8023 122.678 60.1911 125.517 55.7073C126.907 53.5511 126.875 52.2275 126.2 49.8497C126.096 49.483 125.991 49.1098 125.998 48.7287C126.01 48.1594 126.271 47.63 126.487 47.1025C127.071 45.679 127.356 44.1338 127.319 42.5959C127.302 41.8808 127.208 41.1429 126.845 40.5259C126.481 39.9096 125.795 39.4403 125.083 39.5141C124.372 39.588 123.753 40.3416 123.97 41.024C123.342 39.1736 122.706 37.3088 121.715 35.6258C118.178 29.6191 108.531 29.2635 103.336 33.4774C99.403 36.667 97.7383 42.4292 99.488 47.181C99.3873 45.9999 97.5742 45.6653 96.7285 46.4953C95.8827 47.3261 95.865 48.6928 96.1592 49.8412Z" fill="#FFCFA3"/>
<path d="M127.48 50.9532C129.631 55.1677 132.72 59.6717 131.345 64.1993C131.182 64.7359 130.943 65.2751 130.509 65.6287C129.397 66.5333 127.761 65.8163 126.329 65.8588C123.352 65.947 121.356 69.3811 118.391 69.6563C115.671 69.9092 113.545 67.4634 111.928 65.262C111.741 67.8856 108.481 69.4804 105.983 68.6543C103.486 67.8281 101.875 65.3202 101.25 62.7659C100.624 60.2116 100.787 57.5409 100.69 54.9121C100.563 51.4506 99.9745 48.0067 98.947 44.6994C101.492 48.0485 103.766 51.6016 105.743 55.3141C108.23 51.0748 112.891 48.1923 117.795 47.8629C120.244 47.6982 123.031 48.3342 124.302 50.4349C122.94 48.1845 123.721 43.4752 123.93 40.915C124.855 44.8838 125.601 47.2681 127.48 50.9532Z" fill="#D6AF00"/>
<path d="M109.041 36.3826C111.747 35.2741 114.699 34.7859 117.619 34.9284C119.585 35.0244 122.275 35.8499 122.852 37.9487C122.718 36.2062 122.236 35.0395 121.614 33.463C120.664 31.0524 119.713 28.6413 118.762 26.2301C118.321 25.1105 117.58 23.3451 118.338 22.1843C118.925 21.2816 119.797 21.4803 120.703 21.1522C123.021 20.3136 124.627 17.8188 125.174 15.4874C125.877 12.4847 124.935 9.14865 122.763 6.9584C122.48 6.67277 122.169 6.39302 122.019 6.01981C121.891 5.70085 121.894 5.3479 121.858 5.00607C121.655 3.08772 120.139 1.48768 118.359 0.745174C116.578 0.00267211 114.575 -0.00386175 112.66 0.232745C108.743 0.717724 104.95 2.18965 101.732 4.47598C101.273 4.80279 100.769 5.33091 100.996 5.84726C101.108 6.10151 101.371 6.25577 101.521 6.48911C101.818 6.95186 101.573 7.60612 101.134 7.93816C100.695 8.27019 100.125 8.36039 99.5803 8.43425C95.6835 8.96171 91.718 9.1663 87.9362 10.2448C84.1551 11.3232 80.4714 13.4233 78.4929 16.822C77.2765 18.9123 76.8066 21.6039 77.9229 23.7503C79.0393 25.8981 81.493 27.0537 83.8924 27.3792C86.2911 27.7053 88.7232 27.3537 91.1429 27.2792C91.4788 27.2687 91.8364 27.2693 92.1226 27.4452C92.4632 27.6543 92.6213 28.0576 92.7573 28.4321C93.7861 31.2649 94.8149 34.0976 95.8443 36.9304C96.2025 37.9167 98.0104 44.7855 98.8574 44.9136C99.5947 45.0247 102.48 40.7292 103.231 40.0507C104.122 39.2461 105.085 38.5193 106.104 37.8846C106.902 37.3892 108.408 37.0147 109.041 36.3826Z" fill="white"/>
<path opacity="0.23" d="M121.784 4.65416C122.038 5.35091 121.683 5.61105 122.046 6.25616C122.38 6.84768 123.134 7.33266 123.549 7.87058C125.357 10.2203 126.095 13.2348 125.278 16.0198C124.584 18.3852 122.744 20.3846 120.444 21.2716C119.476 21.6454 118.294 21.9559 117.929 22.9285C117.636 23.7095 118.025 24.5638 118.392 25.3135C119.609 27.807 120.657 30.3829 121.528 33.0176C122.364 35.5477 122.97 38.9909 123.931 40.9139C123.859 40.4295 124.245 39.6197 125.029 39.5223C125.514 39.4622 125.961 39.5929 126.323 39.9223C127.906 41.3642 127.269 44.712 126.938 45.765C126.743 46.3853 126.796 46.5957 126.13 48.0716C126.13 48.0716 126.506 49.1147 126.804 49.7579C127.806 51.9148 129.103 53.9194 130.133 56.0626C131.173 58.2254 131.539 60.7072 131.366 63.1007C131.297 64.0452 131.084 65.0805 130.327 65.6498C129.419 66.3328 128.434 66.0504 127.452 65.8602C126.342 65.6445 125.067 65.8393 124.089 66.4047C123.617 66.6772 123.204 67.0387 122.774 67.372C121.781 68.1433 118.604 70.5218 117.328 69.4296C116.885 69.0499 116.887 68.3603 117.044 67.7982C117.285 66.9406 117.354 66.1197 117.576 65.2798C118.351 62.3667 118.835 59.3143 118.545 56.2966C118.434 55.139 115.565 47.7506 116.754 47.3493C116.967 47.2774 117.208 47.2977 117.411 47.199C117.71 47.0519 117.834 46.6951 117.9 46.3682C118.102 45.3793 117.936 44.5943 117.492 43.695C116.613 41.9087 114.882 40.8374 114.382 38.9066C113.84 36.8157 113.393 34.7006 113.044 32.5692C112.807 31.1267 112.611 29.6633 112.09 28.2972C110.941 25.2913 108.349 23.084 105.676 21.2912C104.582 20.5572 103.365 19.7447 103.055 18.4643C102.521 16.2558 104.937 14.5073 105.658 12.3517C106.476 9.90593 105.21 7.69672 102.78 7.14769C102.353 7.05095 100.965 6.17904 100.965 5.40908C100.964 4.35089 105.885 2.09135 107.652 1.41944C112.458 -0.408054 119.416 -1.40807 121.704 4.44436C121.733 4.51429 121.759 4.58423 121.784 4.65416Z" fill="#8E3900"/>
<path opacity="0.15" d="M117.294 45.0866C117.444 45.5624 117.499 46.0507 117.292 46.4912C117.215 46.6546 117.102 46.8037 116.951 46.901C116.812 46.9906 116.649 47.0331 116.487 47.0631C115.975 47.1586 115.425 47.1403 114.964 46.8997C113.572 46.1723 114.224 43.6637 114.402 42.45C114.481 41.9107 114.549 40.2924 115.411 41.2813C115.802 41.7277 116.053 42.2754 116.3 42.8147C116.527 43.3101 116.754 43.8062 116.981 44.3016C117.096 44.552 117.211 44.8173 117.294 45.0866Z" fill="#8E3900"/>
<path opacity="0.15" d="M107.005 44.9686C106.888 45.0614 106.758 45.196 106.806 45.3378C106.836 45.4241 106.924 45.4758 107.009 45.5097C107.614 45.7477 108.303 45.4372 108.795 45.0137C109.21 44.6587 109.556 44.2143 109.746 43.7032C110.186 42.5188 109.658 42.6273 108.988 43.3188C108.389 43.9378 107.681 44.4365 107.005 44.9686Z" fill="#8E3900"/>
<path opacity="0.15" d="M97.7842 47.6503C97.5953 47.63 97.3894 47.6333 97.2345 47.7437C97.1116 47.8313 97.0404 47.9732 96.9842 48.113C96.8228 48.5176 96.7476 48.9562 96.7659 49.3908C96.7685 49.451 96.777 49.5183 96.826 49.5536C96.8711 49.5863 96.9332 49.5765 96.9888 49.5712C97.2907 49.5457 97.5796 49.7203 97.7823 49.9458C97.9849 50.1719 98.1202 50.4477 98.2796 50.7059C98.6561 51.3177 99.1758 51.8399 99.7856 52.2197C99.8784 52.2772 100.002 52.3308 100.09 52.2654C100.154 52.2164 100.163 52.1242 100.167 52.0425C100.245 50.1405 100.144 47.9013 97.7842 47.6503Z" fill="#8E3900"/>
<path opacity="0.15" d="M125.638 40.8223C126.044 41.3523 126.285 42.0066 126.318 42.6726C126.337 43.0537 126.291 43.4341 126.284 43.8152C126.267 44.7812 126.489 45.8244 126.006 46.661C125.847 46.51 125.818 46.2721 125.791 46.0544C125.663 45.0282 125.337 44.0949 124.938 43.1485C124.572 42.2779 124.929 41.4635 125.638 40.8223Z" fill="#8E3900"/>
<path opacity="0.15" d="M104.474 23.3932C108.595 22.7011 112.806 22.69 116.974 22.99C117.077 22.9972 117.188 23.003 117.273 22.9449C117.536 22.7658 117.221 22.3782 116.933 22.2435C112.798 20.3193 108.008 20.0919 103.538 20.9984C99.7933 21.7579 94.6343 23.7508 92.9238 27.5169C93.5363 27.6509 94.8193 26.5848 95.4128 26.2848C96.3579 25.807 97.3318 25.3848 98.3246 25.0155C100.314 24.2743 102.381 23.7442 104.474 23.3932Z" fill="black"/>
<path d="M112.159 52.9352C112.159 52.9352 112.292 52.9888 112.525 53.0809C112.754 53.1711 113.086 53.2861 113.487 53.3907C113.889 53.4901 114.36 53.5763 114.866 53.6123C115.119 53.6332 115.381 53.626 115.645 53.6228C115.905 53.6129 116.183 53.5835 116.432 53.5424C116.722 53.4959 116.961 53.4437 117.22 53.3698C117.472 53.2888 117.723 53.2149 117.957 53.1162C118.426 52.924 118.847 52.6946 119.198 52.475C119.545 52.2502 119.825 52.0384 120.015 51.8796C120.207 51.7188 120.317 51.6279 120.317 51.6279C120.317 51.6279 120.252 51.756 120.112 51.9672C119.973 52.1783 119.75 52.4685 119.43 52.7704C119.111 53.0724 118.693 53.3842 118.198 53.6391C117.95 53.7633 117.687 53.8835 117.407 53.9731C117.134 54.06 116.819 54.1371 116.551 54.1855C115.943 54.2751 115.352 54.2744 114.8 54.1829C114.25 54.0953 113.756 53.9293 113.359 53.7424C112.96 53.5561 112.659 53.3502 112.458 53.1927C112.26 53.0365 112.159 52.9352 112.159 52.9352Z" fill="#222221"/>
<path d="M114.888 40.6602C114.888 40.6602 115.384 41.0314 116.032 41.6955C116.356 42.0282 116.716 42.4426 117.04 42.94C117.368 43.4334 117.645 44.023 117.812 44.6491C117.89 44.9642 117.939 45.2884 117.953 45.6113C117.966 45.9354 117.948 46.2459 117.861 46.576C117.785 46.893 117.546 47.2538 117.194 47.3649C116.86 47.4655 116.629 47.4335 116.387 47.4394C115.915 47.4316 115.528 47.3603 115.264 47.2969C114.999 47.2329 114.854 47.1773 114.854 47.1773C114.854 47.1773 115.007 47.174 115.276 47.1675C115.543 47.1577 115.92 47.1322 116.362 47.0649C116.574 47.0257 116.849 46.9904 117.012 46.9119C117.165 46.8355 117.251 46.6721 117.302 46.4374C117.35 46.21 117.335 45.9211 117.322 45.6472C117.305 45.3694 117.254 45.0884 117.179 44.8125C117.043 44.255 116.806 43.7223 116.546 43.2347C116.284 42.7484 115.994 42.3099 115.742 41.9321C115.226 41.183 114.888 40.6602 114.888 40.6602Z" fill="#E58593"/>
<path d="M106.796 42.8097C106.796 42.8097 106.777 42.6182 106.905 42.3646C106.962 42.2378 107.06 42.1083 107.183 41.9881C107.307 41.8665 107.466 41.7704 107.632 41.6894C107.972 41.5436 108.358 41.5338 108.62 41.6214C108.886 41.7005 109.019 41.8476 109.019 41.8476C109.019 41.8476 108.837 41.9188 108.62 41.9972C108.4 42.0776 108.142 42.1789 107.891 42.2887C107.639 42.3966 107.387 42.5142 107.178 42.6201C106.976 42.7195 106.796 42.8097 106.796 42.8097Z" fill="#222221"/>
<path d="M118.501 39.7523C118.501 39.7523 118.589 39.5857 118.817 39.4399C119.035 39.2889 119.382 39.183 119.734 39.2C120.085 39.2203 120.42 39.3615 120.62 39.5347C120.827 39.702 120.901 39.8798 120.901 39.8798C120.901 39.8798 120.71 39.8909 120.482 39.8831C120.25 39.8772 119.973 39.8648 119.699 39.8517C119.426 39.8353 119.149 39.817 118.918 39.7987C118.695 39.7811 118.501 39.7523 118.501 39.7523Z" fill="#222221"/>
<path d="M104.75 41.6917C104.75 41.6917 104.819 41.3355 105.048 40.8498C105.271 40.3694 105.684 39.7328 106.329 39.3112C106.482 39.2165 106.669 39.1217 106.844 39.0537C107.021 38.9844 107.205 38.9446 107.382 38.9171C107.738 38.8628 108.082 38.8995 108.354 38.9864C108.628 39.0687 108.827 39.208 108.944 39.3165C109.063 39.425 109.114 39.5001 109.114 39.5001C109.114 39.5001 109.027 39.4681 108.882 39.4308C108.737 39.391 108.531 39.3557 108.292 39.357C108.052 39.3616 107.78 39.3968 107.501 39.4805C107.36 39.5171 107.224 39.5831 107.084 39.638C106.943 39.7008 106.825 39.7681 106.686 39.859C106.159 40.1943 105.709 40.6825 105.358 41.0577C105.012 41.4387 104.75 41.6917 104.75 41.6917Z" fill="#D6AF00"/>
<path d="M117.635 37.9477C117.635 37.9477 117.63 37.8686 117.652 37.7307C117.674 37.5895 117.729 37.3921 117.856 37.1777C117.981 36.964 118.178 36.7372 118.443 36.5581C118.705 36.3745 119.04 36.2535 119.39 36.2156C119.547 36.2058 119.745 36.2156 119.909 36.2424C120.078 36.2692 120.236 36.3281 120.382 36.3908C120.674 36.5222 120.908 36.7124 121.067 36.9013C121.228 37.0902 121.317 37.2771 121.362 37.4098C121.407 37.5431 121.417 37.6215 121.417 37.6215C121.417 37.6215 121.187 37.3915 120.824 37.1869C120.64 37.0869 120.423 36.9934 120.185 36.9307C120.067 36.8967 119.942 36.8862 119.819 36.866C119.691 36.8536 119.588 36.8536 119.446 36.866C118.947 36.9006 118.466 37.1542 118.143 37.417C117.821 37.6804 117.635 37.9477 117.635 37.9477Z" fill="#D6AF00"/>
<path d="M68.218 161.076C69.1468 160.17 69.671 158.864 69.6259 157.567C71.8652 156.762 73.9731 156.012 76.3156 155.593C77.1058 155.451 77.9339 155.334 78.7006 155.572C79.4673 155.811 80.1503 156.51 80.1059 157.312C80.0752 157.875 79.6961 158.373 79.2268 158.687C78.7575 159.001 78.2052 159.16 77.6601 159.307C74.3607 160.198 71.6155 160.695 68.218 161.076Z" fill="#7A7A7A"/>
<path d="M25.5354 171.505C24.3392 170.54 22.8418 169.684 21.6457 168.72C21.2522 168.403 20.8424 168.077 20.3522 167.952C19.7568 167.801 19.1319 167.968 18.5417 168.139C12.5115 169.881 6.60678 172.059 0.890957 174.653C0.564152 174.802 0.209888 174.977 0.0667477 175.307C-0.0907724 175.669 0.060216 176.084 0.213161 176.448C1.43868 179.372 2.79688 182.238 4.28188 185.039C4.75248 185.926 13.622 183.283 14.6691 182.961C18.0071 181.937 21.1849 180.519 24.3412 179.098C24.5569 179.002 24.7726 178.896 24.9438 178.734C25.119 178.568 25.238 178.353 25.3504 178.139C25.9484 177.003 26.2053 175.405 26.9014 174.375C27.623 173.308 28.7936 173.099 30.0688 172.608C33.0368 171.465 36.0199 170.361 39.0213 169.307C42.022 168.255 45.0404 167.252 48.0797 166.314C49.0065 166.028 56.7877 164.367 56.8969 163.799C57.0891 162.797 57.2152 161.782 57.274 160.763C46.5437 163.575 35.6977 167.06 25.5354 171.505ZM4.70543 174.771C8.12381 173.375 11.6638 171.896 15.2429 170.969C16.0952 170.748 16.9802 170.566 17.8508 170.696C18.0273 170.722 18.2509 170.835 18.2031 171.007C18.1803 171.09 18.0999 171.14 18.0254 171.183C14.9357 172.939 11.5853 173.902 8.23623 175.024C7.13555 175.393 6.01787 175.766 4.85837 175.823C4.55836 175.838 4.17927 175.777 4.09626 175.488C4.00214 175.155 4.38581 174.901 4.70543 174.771ZM3.64657 179.36C4.21979 178.636 5.07079 178.196 5.90349 177.796C8.27152 176.663 10.7167 175.693 13.2174 174.896C15.3639 174.211 17.7979 173.226 20.0777 173.354C19.6489 174.845 15.9109 175.846 14.6344 176.381C12.4938 177.279 10.3036 178.06 8.07675 178.718C6.63553 179.144 5.14007 179.521 3.64657 179.36ZM21.2529 177.55C17.3103 179.525 13.1324 181.027 8.83559 182.015C8.09505 182.186 7.30222 182.338 6.59109 182.071C6.59632 181.717 6.9447 181.479 7.25647 181.31C9.53104 180.077 11.9585 179.16 14.422 178.383C16.2201 177.817 19.4345 176.244 21.3052 176.777C21.4437 176.817 21.5934 176.885 21.6411 177.021C21.7196 177.248 21.4673 177.443 21.2529 177.55Z" fill="#7A7A7A"/>
</svg>
